<svg xmlns="http://www.w3.org/2000/svg"
shape-rendering="geometricPrecision"
width="4000" height="4000" viewBox="0 0 1024 1024">
  <metadata>null</metadata>

<path d="
M 95.221 516.511
C 97.457 513.924 100.062 511.591 102.448 509.136
C 103.81 507.735 105.188 505.954 106.968 505.09
C 107.721 506.606 109.815 508.143 109.833 509.937
C 108.904 510.98 107.223 511.315 106.01 511.902
C 103.42 513.156 100.191 514.608 98.519 517.052
C 98.098 518.57 98.451 520.292 98.348 521.865
C 98.219 523.854 97.624 526.034 97.881 528.016
C 98.017 529.065 98.827 530.13 98.769 531.17
C 97.457 530.738 95.695 528.827 95.157 527.597
C 95.258 526.362 96.08 525.363 96.426 524.186
C 97.129 521.796 96.371 519.062 95.127 517.014
C 95.158 516.846 95.189 516.679 95.221 516.511 Z"
opacity="0.996" fill="rgb(94,174,236)" fill-rule="evenodd" />
<path d="
M 102.666 526.941
C 104.991 524.332 105.15 521.621 104.677 518.239
C 105.356 517.204 107.66 516.417 108.779 515.841
C 111.466 514.458 114.182 513.119 116.768 511.555
C 118.161 510.713 119.494 509.445 121.109 509.131
C 122.483 511.712 124.146 515.125 126.18 517.229
C 127.202 517.512 128.066 516.869 128.783 516.2
C 129.18 515.285 128.23 514.315 127.796 513.548
C 126.681 511.576 125.782 509.473 124.759 507.453
C 125.493 506.197 127.546 505.39 128.786 504.682
C 132.138 502.769 135.506 500.889 138.882 499.019
C 146.823 494.619 154.764 490.219 162.649 485.72
C 165.61 484.03 168.641 482.454 171.586 480.74
C 173.547 479.598 175.465 478.213 177.613 477.475
C 179.024 480.417 180.923 483.232 182.495 486.106
C 187.067 494.467 191.758 502.761 196.441 511.06
C 198.395 514.524 200.357 517.979 202.296 521.45
C 203.037 522.778 204.118 524.15 204.589 525.599
C 204.058 526.519 201.837 527.245 200.902 527.754
C 197.518 529.598 194.191 531.565 190.832 533.454
C 182.225 538.293 173.606 543.101 164.981 547.903
C 160.6 550.343 155.899 553.854 151.141 555.421
C 148.882 553.392 148.79 549.466 146.571 547.353
C 145.05 546.933 143.776 548.05 143.746 549.57
C 144.528 551.616 145.97 553.502 146.866 555.555
C 147.093 556.075 147.942 557.045 147.72 557.615
C 145.674 558.185 143.953 559.962 142.169 561.049
C 140.039 562.347 137.789 563.466 135.618 564.693
C 134.611 565.263 133.328 566.474 132.192 566.635
C 131.004 565.843 130.187 564.631 128.873 563.975
C 126.925 563.002 124.675 563.332 122.583 563.336
C 121.85 562.91 121.506 561.503 121.105 560.751
C 120.094 558.853 119.114 556.931 118.008 555.088
C 117.51 554.258 116.766 553.446 116.603 552.487
C 121.347 548.536 120.954 541.048 114.953 538.401
C 112.689 537.403 110.842 538.11 108.568 538.363
C 106.12 535.098 104.824 530.886 102.489 527.515
C 102.548 527.324 102.607 527.132 102.666 526.941 Z
M 135.961 533.921
C 136.584 533.833 137.01 533.821 137.246 533.181
C 137.119 532.574 137.093 532.029 137.177 531.414
C 137.462 529.859 136.378 528.646 135.612 527.391
C 134.665 525.84 133.977 524.15 133.069 522.578
C 132.651 521.856 132.092 520.586 131.231 520.347
C 130.412 520.931 129.559 521.484 128.721 522.047
C 129.833 525.201 131.855 528.667 133.755 531.412
C 134.392 532.331 134.801 533.716 135.961 533.921 Z
M 136.539 534.398
C 136.352 534.554 136.165 534.71 135.978 534.866
C 136.516 537.328 138.347 539.778 139.59 541.966
C 139.87 542.459 140.346 543.785 140.898 543.888
C 142.014 543.491 142.783 542.382 143.744 541.737
C 143.889 541.187 142.798 539.998 142.518 539.519
C 141.4 537.602 140.758 534.656 138.521 533.765
C 137.788 533.789 137.183 534.06 136.539 534.398 Z
M 137.882 516.547
C 137.795 516.703 137.708 516.86 137.621 517.016
C 137.912 517.897 137.969 519.165 138.976 519.456
C 142.442 518.701 145.841 516.033 148.937 514.352
C 156.197 510.409 163.442 506.437 170.615 502.339
C 173.095 500.922 175.636 499.606 178.099 498.161
C 178.719 497.798 180.156 497.242 180.449 496.599
C 180.028 495.653 179.464 494.287 178.52 493.805
C 176.936 494.308 175.564 495.481 174.127 496.291
C 170.987 498.06 167.882 499.882 164.762 501.684
C 155.896 506.805 146.749 511.431 137.882 516.547 Z
M 143.244 526.5
C 143.429 527.218 144.309 529.021 145.025 529.282
C 151.849 524.693 159.589 521.216 166.702 517.076
C 171.193 514.461 175.779 512.006 180.26 509.376
C 181.943 508.388 183.621 507.132 185.422 506.38
C 185.634 505.343 184.587 504.305 184.043 503.532
C 181.936 503.964 180.145 505.293 178.321 506.387
C 175.804 507.897 173.255 509.344 170.702 510.792
C 161.615 515.946 151.8 520.526 143.244 526.5 Z
M 148.842 535.947
C 149.316 536.904 149.616 537.991 150.213 538.879
C 151.839 538.509 153.998 536.719 155.49 535.867
C 159.168 533.766 162.944 531.826 166.585 529.66
C 167.891 528.883 170.708 527.927 171.305 526.439
C 170.99 525.425 170.043 524.537 169.129 524.04
C 164.448 526.537 159.982 529.462 155.302 531.979
C 153.465 532.967 150.021 534.21 148.842 535.947 Z"
opacity="1" fill="rgb(27,113,222)" fill-rule="evenodd" />
<path d="
M 108.373 503.636
C 108.376 503.48 108.378 503.325 108.381 503.169
C 111.377 499.798 114.757 496.789 117.779 493.437
C 127.225 482.963 137.118 472.762 147.041 462.743
C 148.877 463.415 150.775 466.025 152.203 467.365
C 155.14 470.122 158.268 472.667 161.221 475.403
C 162.393 476.489 164.1 477.663 164.907 479.034
C 154.963 485.746 143.815 491.027 133.369 496.937
C 129.199 499.296 125.005 501.609 120.828 503.956
C 118.33 505.359 115.731 507.226 112.965 508.04
C 111.477 506.571 109.995 504.953 108.373 503.636 Z"
opacity="1" fill="rgb(98,171,242)" fill-rule="evenodd" />
<path d="
M 137.177 531.414
C 137.093 532.029 137.119 532.574 137.246 533.181
C 137.01 533.821 136.584 533.833 135.961 533.921
C 136.054 532.841 136.4 532.157 137.177 531.414 Z"
opacity="1" fill="rgb(69,165,247)" fill-rule="evenodd" />
<path d="
M 145.921 570.527
C 147.079 568.462 146.899 565.805 146.535 563.537
C 162.516 553.765 179.356 545.139 195.719 536.013
C 201.187 532.962 206.704 529.976 212.099 526.796
C 214.18 525.57 216.217 524.204 218.346 523.07
C 218.583 522.944 220.561 521.765 220.75 522.359
C 220.821 522.584 220.172 523.161 220.056 523.298
C 219.294 524.197 218.444 525.011 217.587 525.819
C 214.124 529.088 210.939 532.687 207.669 536.147
C 193.581 551.054 179.85 566.384 165.307 580.835
C 164.313 581.037 162.502 579.729 161.399 579.554
C 158.978 579.169 156.975 580.038 154.704 580.606
C 153.59 579.997 152.683 578.455 151.781 577.537
C 149.788 575.508 147.409 573.685 145.548 571.57
C 145.806 570.78 145.675 571.126 145.921 570.527 Z"
opacity="1" fill="rgb(98,171,242)" fill-rule="evenodd" />
<path d="
M 149.709 459.525
C 152.617 456.258 155.512 452.98 158.43 449.722
C 159.444 448.59 160.619 446.393 161.926 445.714
C 165.377 447.672 168.753 446.919 172.143 445.392
C 172.937 445.726 173.746 447.02 174.354 447.654
C 175.742 449.101 177.224 450.443 178.681 451.819
C 179.313 452.416 180.233 453.081 180.478 453.941
C 180.222 454.996 179.603 455.944 179.456 457.027
C 179.014 460.27 180.526 463.503 183.501 464.966
C 184.724 465.568 187.112 465.294 188.017 466.119
C 187.285 466.843 185.888 467.28 184.974 467.818
C 181.37 469.94 177.596 471.773 174.008 473.923
C 172.677 474.721 170.064 476.891 168.536 476.878
C 166.911 476.136 165.39 474.377 164.022 473.218
C 160.712 470.416 157.518 467.453 154.334 464.509
C 152.79 463.082 151.332 461.254 149.622 460.058
C 149.651 459.88 149.68 459.703 149.709 459.525 Z"
opacity="1" fill="rgb(100,172,243)" fill-rule="evenodd" />
<path d="
M 181.092 475.409
C 186.21 472.351 191.682 469.688 196.509 466.169
C 197.808 466.85 198.861 467.933 200.248 468.473
C 202.155 469.216 204.719 469.006 206.674 468.585
C 207.477 469.399 207.975 470.903 208.539 471.926
C 209.51 473.69 210.549 475.418 211.572 477.151
C 211.99 477.86 213.311 479.304 212.816 480.101
C 208.867 483.288 208.677 489.98 213.042 492.991
C 215.481 494.674 218.356 494.569 221.169 494.134
C 222.94 496.526 224.329 499.417 225.811 502.007
C 226.186 502.662 227.507 504.15 227.271 504.871
C 226.778 505.729 226.007 506.381 225.547 507.277
C 224.318 509.672 224.417 511.923 224.844 514.438
C 221.837 516.231 218.514 517.757 215.433 519.503
C 213.049 520.855 210.58 522.565 208.005 523.509
C 204.636 519.107 202.254 513.53 199.556 508.692
C 193.375 497.615 187.182 486.525 181.092 475.409 Z"
opacity="1" fill="rgb(30,114,223)" fill-rule="evenodd" />
<path d="
M 262.712 538.541
C 264.97 535.929 266.673 532.812 269.029 530.297
C 270.061 530.274 272.363 533.109 273.281 533.843
C 275.871 535.913 279.12 537.411 282.315 538.254
C 286.7 539.412 292.682 539.922 296.808 537.652
C 300.224 535.774 301.798 531.146 298.669 528.143
C 295.901 525.485 291.639 524.762 288.054 523.875
C 279.989 521.879 269.472 520.044 266.283 511.138
C 265.748 509.642 265.522 508.086 265.456 506.504
C 265.381 504.672 265.54 502.792 266.054 501.025
C 270.354 486.229 291.149 485.995 302.722 491.151
C 305.633 492.448 308.95 493.923 311.059 496.409
C 309.78 499.442 307.377 502.548 305.55 505.297
C 303.853 504.346 302.363 503.087 300.635 502.175
C 295.654 499.547 289.742 497.983 284.087 498.683
C 279.786 499.216 274.772 503.606 278.147 508.155
C 280.477 511.297 285.959 512.042 289.485 512.862
C 298.816 515.033 310.659 517.899 312 529.159
C 312.29 531.6 312.162 533.967 311.488 536.34
C 307.191 551.471 285.785 551.771 273.97 546.774
C 270.803 545.435 267.803 543.556 265.28 541.214
C 264.479 540.471 263.019 539.567 262.712 538.541 Z"
opacity="1" fill="rgb(39,123,224)" fill-rule="evenodd" />
<path d="
M 323.279 489.27
C 328.197 489.077 333.254 489.667 338.146 489.153
C 341.041 493.123 342.708 498.528 344.925 502.924
C 347.286 507.605 349.673 512.27 352.052 516.94
C 353.257 519.305 354.777 521.617 355.765 524.078
C 355.957 524.118 356.814 522.308 356.952 522.06
C 358.046 520.092 359.099 518.105 360.164 516.121
C 363.338 510.213 366.269 504.18 369.306 498.202
C 370.801 495.259 372.01 491.925 373.89 489.219
C 377.336 489.202 380.784 489.217 384.232 489.209
C 385.324 489.206 387.554 488.766 388.429 489.432
C 388.209 493.234 388.613 497.18 388.619 501.005
C 388.634 509.837 388.601 518.67 388.626 527.503
C 388.64 532.17 388.684 536.838 388.681 541.505
C 388.68 543.619 388.272 546.173 388.682 548.235
C 384.807 548.381 380.925 548.211 377.049 548.249
C 376.676 547.745 376.9 546.618 376.909 545.994
C 376.936 544.162 376.907 542.329 376.912 540.497
C 376.931 533.329 376.888 526.16 376.89 518.992
C 376.891 515.943 376.806 512.86 376.982 509.818
C 377.007 509.381 377.201 506.788 376.615 507.046
C 372.449 515.021 368.266 523.007 364.076 530.979
C 362.892 533.232 361.755 535.521 360.503 537.738
C 360.041 538.557 359.688 539.757 359.006 540.396
C 356.847 540.483 354.696 540.437 352.537 540.45
C 350.746 538.977 349.669 535.274 348.587 533.218
C 345.353 527.071 342.201 520.879 339.022 514.704
C 337.979 512.678 337.002 510.618 335.965 508.59
C 335.871 508.406 335.053 506.612 334.891 506.698
C 334.698 506.8 334.804 508.718 334.803 509.054
C 334.795 511.535 334.794 514.018 334.787 516.5
C 334.768 523.5 334.832 530.501 334.816 537.501
C 334.809 540.879 334.236 544.818 334.826 548.136
C 331.163 548.143 326.817 548.834 323.231 548.137
C 323.021 528.519 323.504 508.887 323.279 489.27 Z"
opacity="1" fill="rgb(44,127,225)" fill-rule="evenodd" />
<path d="
M 397.373 547.53
C 406.472 528.335 415.326 508.847 423.422 489.199
C 426.955 488.191 431.5 489.254 435.167 489.068
C 444.815 508.405 452.326 528.817 462.011 548.138
C 460.895 548.528 459.178 548.251 457.999 548.255
C 455.061 548.263 452.065 548.387 449.135 548.237
C 448.098 545.579 446.911 542.955 445.771 540.337
C 445.169 538.956 444.78 537.368 443.894 536.14
C 434.356 536.967 424.491 536.163 414.916 536.255
C 412.548 539.445 410.994 544.474 409.656 548.223
C 408.581 548.653 406.666 548.317 405.502 548.305
C 402.705 548.277 399.875 548.401 397.087 548.228
C 397.182 547.996 397.277 547.763 397.373 547.53 Z
M 419.434 525.163
C 419.375 525.335 419.316 525.507 419.257 525.679
C 424.168 525.711 429.093 525.602 434.009 525.596
C 435.391 525.595 438.325 526.147 439.504 525.542
C 435.551 518.148 432.416 509.893 429.325 502.117
C 427.694 506.829 425.453 511.36 423.5 515.95
C 422.205 518.994 421.103 522.304 419.434 525.163 Z"
opacity="1" fill="rgb(36,119,220)" fill-rule="evenodd" />
<path d="
M 469.951 489.292
C 477.091 489.156 484.245 489.276 491.391 489.276
C 497.961 489.275 504.597 489.161 510.536 492.43
C 521.088 498.24 522.494 513.582 515.429 522.66
C 513.414 525.249 510.582 526.573 507.734 528.017
C 507.467 529.44 510.214 532.241 511.027 533.472
C 514.385 538.556 517.911 543.654 521.837 548.295
C 518.491 547.614 514.422 548.289 510.996 548.249
C 509.944 548.237 508.763 548.475 507.751 548.171
C 505.631 545.806 503.984 542.799 502.192 540.178
C 499.913 536.842 497.399 533.538 495.357 530.059
C 494.616 529.554 493.304 529.855 492.429 529.851
C 489.898 529.837 487.365 529.809 484.833 529.836
C 483.963 529.846 482.294 529.585 481.732 530.283
C 481.818 534.351 481.737 538.435 481.711 542.505
C 481.7 544.215 481.27 546.535 481.642 548.163
C 477.833 548.248 474.025 548.132 470.216 548.217
C 469.523 547.263 469.943 545.146 469.938 543.997
C 469.92 540.164 469.932 536.331 469.93 532.497
C 469.921 518.11 469.578 503.673 469.951 489.292 Z
M 481.833 499.918
C 481.79 506.31 482.093 512.812 481.754 519.194
C 483.148 519.834 485.951 519.266 487.506 519.267
C 492.697 519.271 499.611 520.562 504.181 517.577
C 508.987 514.439 509.612 505.722 504.836 502.175
C 501.781 499.907 498.165 499.871 494.528 499.817
C 490.302 499.754 486.054 499.692 481.833 499.918 Z"
opacity="1" fill="rgb(36,117,218)" fill-rule="evenodd" />
<path d="
M 525.838 489.264
C 529.178 488.961 532.648 489.253 536.005 489.251
C 542.505 489.246 549.004 489.229 555.504 489.23
C 560.004 489.232 564.505 489.234 569.005 489.248
C 570.965 489.253 573.159 488.921 575.086 489.234
C 575.114 492.576 575.731 496.703 575.046 499.976
C 570.544 499.825 566.009 499.928 561.503 499.943
C 560.133 499.948 557.436 499.442 556.274 500.206
C 556.586 516.169 555.914 532.187 556.48 548.134
C 555.293 548.43 553.727 548.186 552.502 548.175
C 549.832 548.151 547.163 548.146 544.493 548.132
C 544.124 541.998 544.593 535.658 544.581 529.499
C 544.562 519.746 544.21 509.91 544.572 500.168
C 538.549 499.912 532.504 500.077 526.476 499.93
C 525.723 499.265 526.024 497.938 526.055 496.993
C 526.138 494.447 526.016 491.803 525.838 489.264 Z"
opacity="1" fill="rgb(40,122,221)" fill-rule="evenodd" />
<path d="
M 605.76 489.248
C 616.789 488.72 627.963 489.221 639.008 489.223
C 642.508 489.224 646.008 489.229 649.508 489.226
C 651.058 489.225 653.043 488.874 654.528 489.289
C 654.704 492.77 654.501 496.299 654.675 499.788
C 648.522 499.624 642.085 499.282 635.953 499.857
C 635.387 500.906 635.646 502.584 635.647 503.783
C 635.65 507.022 635.671 510.262 635.684 513.501
C 635.713 521.156 635.742 528.812 635.749 536.468
C 635.752 540.336 635.475 544.344 635.764 548.196
C 632.012 547.954 627.951 547.783 624.207 548.153
C 623.569 544.309 624.181 539.911 624.195 536.006
C 624.225 528.007 624.196 520.007 624.184 512.008
C 624.179 509.272 624.187 506.535 624.213 503.799
C 624.225 502.535 624.486 500.989 624.102 499.771
C 619.569 499.665 615.029 499.756 610.495 499.725
C 609.36 499.717 606.65 500.269 605.771 499.669
C 605.781 496.197 605.787 492.719 605.76 489.248 Z"
opacity="1" fill="rgb(59,62,63)" fill-rule="evenodd" />
<path d="
M 664.404 490.614
C 664.511 489.943 664.486 490.355 664.336 489.379
C 667.927 488.963 672.461 488.815 676.04 489.325
C 675.742 493.113 676.209 497.172 676.21 500.998
C 676.212 510.164 676.182 519.33 676.195 528.496
C 676.202 532.996 676.186 537.496 676.182 541.996
C 676.18 543.868 675.749 546.412 676.193 548.204
C 672.379 547.644 668.212 547.933 664.38 548.081
C 665.221 533.831 664.383 519.276 664.357 504.997
C 664.348 500.255 663.978 495.337 664.404 490.614 Z"
opacity="1" fill="rgb(59,61,61)" fill-rule="evenodd" />
<path d="
M 687.938 513.594
C 689.515 507.184 691.602 501.151 696.619 496.524
C 708.922 485.18 733.071 484.643 743.282 499.433
C 742.026 501.403 739.017 503.169 737.227 504.702
C 736.692 505.16 735.927 506.262 735.214 506.383
C 731.86 503.308 728.969 500.601 724.467 499.315
C 721.706 498.526 718.781 498.394 715.938 498.739
C 713.599 499.022 711.375 499.736 709.312 500.867
C 695.602 508.386 695.943 529.108 709.594 536.429
C 711.729 537.573 714.155 538.318 716.558 538.594
C 719.801 538.967 722.898 538.518 725.972 537.441
C 729.491 536.208 732.667 533.521 735.073 530.732
C 735.936 530.874 736.78 532.148 737.46 532.726
C 739.387 534.362 741.395 535.936 743.291 537.599
C 743.199 538.115 742.442 538.726 742.085 539.096
C 740.831 540.397 739.553 541.651 738.119 542.753
C 731.966 547.481 724.553 549.813 716.779 549.409
C 698.517 548.459 684.867 531.677 687.938 513.594 Z"
opacity="1" fill="rgb(59,61,61)" fill-rule="evenodd" />
<path d="
M 752.487 546.634
C 753.221 536.358 752.607 525.807 752.602 515.503
C 752.598 507.002 753.277 498.143 752.52 489.683
C 753.279 489.048 754.537 489.291 755.503 489.285
C 758.13 489.27 761.428 488.739 763.975 489.382
C 763.701 493.117 764.174 496.99 764.185 500.745
C 764.199 505.796 763.822 511.033 764.393 516.055
C 765.282 515.618 765.788 514.548 766.45 513.825
C 767.938 512.199 769.436 510.572 770.951 508.97
C 774.734 504.969 778.592 500.992 782.246 496.875
C 784.441 494.401 786.601 491.589 789.037 489.368
C 792.266 488.646 796.19 489.295 799.503 489.219
C 800.465 489.197 802.089 488.871 802.908 489.392
C 796.092 498.169 787.48 505.574 780.349 514.065
C 780.685 515.234 781.887 516.417 782.596 517.413
C 784.123 519.558 785.686 521.676 787.178 523.846
C 790.654 528.902 794.37 533.814 797.993 538.766
C 800.27 541.878 802.37 545.337 805.07 548.094
C 804.431 548.581 802.335 548.207 801.51 548.196
C 799.008 548.162 796.508 548.117 794.005 548.111
C 793.019 548.109 791.76 548.378 790.864 547.905
C 786.261 541.756 781.939 535.375 777.409 529.168
C 776.295 527.641 775.181 526.11 774.091 524.566
C 773.564 523.82 773.008 522.749 772.169 522.378
C 769.998 525.267 767.056 528.63 764.229 530.888
C 763.852 532.661 764.172 534.557 764.046 536.361
C 763.787 540.049 763.505 544.328 763.958 547.992
C 760.244 548.077 756.435 547.611 752.734 547.991
C 752.513 547.492 752.488 547.182 752.487 546.634 Z"
opacity="1" fill="rgb(59,61,62)" fill-rule="evenodd" />
<path d="
M 811.262 489.296
C 822.34 489.303 833.426 489.208 844.508 489.208
C 847.339 489.208 850.173 489.252 853.004 489.207
C 853.934 489.192 855.756 488.777 856.472 489.343
C 856.218 492.774 856.472 496.305 856.364 499.755
C 845.237 499.654 833.979 499.294 822.865 499.832
C 823.032 502.942 822.85 506.116 822.847 509.235
C 822.846 510.426 822.543 512.25 822.97 513.353
C 833.013 512.928 843.087 513.626 853.128 513.268
C 853.777 516.612 852.916 520.257 853.299 523.636
C 843.155 523.581 832.98 523.35 822.843 523.709
C 822.972 528.255 822.305 533.012 822.874 537.529
C 827.278 536.915 832.056 537.366 836.504 537.357
C 843.303 537.342 850.201 537.014 856.989 537.405
C 856.812 540.927 856.954 544.662 857.125 548.186
C 853.137 547.543 848.545 548.134 844.501 548.155
C 836.999 548.193 829.498 548.203 821.997 548.205
C 818.45 548.205 814.743 548.509 811.217 548.223
C 810.886 535.67 811.203 523.065 811.197 510.503
C 811.193 503.59 810.367 496.146 811.262 489.296 Z"
opacity="1" fill="rgb(60,62,63)" fill-rule="evenodd" />
<path d="
M 862.409 489.298
C 878.491 488.505 894.676 489.675 910.772 489.175
C 911.118 492.617 910.2 496.425 910.834 499.792
C 904.705 499.662 898.471 499.505 892.351 499.851
C 892.917 511.333 892.383 523.006 892.418 534.509
C 892.431 538.915 891.875 543.7 892.479 548.061
C 891.888 548.34 890.387 547.921 889.696 547.938
C 886.958 548.009 883.475 548.486 880.818 547.911
C 880.696 531.921 880.484 515.855 880.87 499.87
C 874.881 498.997 868.574 500.162 862.542 499.704
C 862.385 496.231 862.412 492.774 862.409 489.298 Z"
opacity="1" fill="rgb(59,61,61)" fill-rule="evenodd" />

</svg>